:SAMPLES-PER-SECOND 30
:FULLY-SPECIFIED
:DEGREES
141
root  -7.93441 39.6289 19.9841 173.513 62.2612 173.373
RightUpLeg  -12.5999 -9.3075 -8.8648
RightLeg  7.42875 -11.168 -0.930821
RightFoot  7.73972 -1.29887 8.0331
RightToes  -1.74624e-010 0 -3.6325e-017
Spine  7.91625 -0.165492 -12.8836
Spine1  24.6342 -0.95915 -1.02737
HEad  -26.056 45.4865 -16.4519
LeftShoulder1  2.22695 -5.56545 -17.9608
LeftArm  9.68342 -1.71834 -59.5849
LeftForeArm  18.9169 -77.531 -80.5263
LeftHand  -0.89938 2.30422 33.291
RightShoulder  1.13907 1.81504 14.6284
RightArm  3.73648 -10.575 61.3763
RightForeArm  5.25446 35.9728 7.84044
RightHand  -1.11937 4.35394 -13.5553
LeftUpLeg  -0.700959 -0.756917 -0.863941
LeftLeg  13.4414 11.1081 3.68468
LeftFoot  -10.4174 0.0944346 -3.96948
LeftToes  -5.82109e-011 1.10366e-010 -8.03124e-011
142
root  -7.97604 39.6245 19.982 173.403 61.999 173.361
RightUpLeg  -12.5382 -9.25171 -8.93078
RightLeg  7.51937 -11.3961 -1.11519
RightFoot  7.76548 -1.30687 8.07052
RightToes  -1.74624e-010 0 -3.6325e-017
Spine  7.93621 -0.0561174 -12.7902
Spine1  25.0132 -0.8361 -1.02025
HEad  -26.0523 45.0175 -16.2888
LeftShoulder1  2.20244 -5.39806 -18.1622
LeftArm  8.85064 -1.14027 -60.3114
LeftForeArm  21.0658 -77.5919 -82.035
LeftHand  -0.770091 2.59038 31.4751
RightShoulder  1.13405 1.74125 14.8822
RightArm  4.28201 -10.7779 61.4713
RightForeArm  5.23676 34.2961 7.37053
RightHand  -0.915516 3.91808 -11.6583
LeftUpLeg  -0.715833 -0.790067 -0.926614
LeftLeg  13.5115 10.9032 3.65583
LeftFoot  -10.4164 0.0938145 -3.88618
LeftToes  -5.82109e-011 1.10366e-010 -8.03124e-011
143
root  -8.03286 39.6199 19.9763 173.274 61.7303 173.286
RightUpLeg  -12.519 -9.23165 -9.04362
RightLeg  7.57936 -11.5971 -1.27192
RightFoot  7.85113 -1.31454 8.08267
RightToes  -1.74624e-010 0 -3.6325e-017
Spine  8.053 0.0276688 -12.7748
Spine1  25.1393 -0.766621 -1.00058
HEad  -25.8512 44.5624 -15.9559
LeftShoulder1  2.16686 -5.16772 -18.428
LeftArm  8.20545 -0.821626 -60.6343
LeftForeArm  22.4992 -77.628 -83.0631
LeftHand  -0.605557 3.04915 29.7334
RightShoulder  1.13111 1.65979 15.1537
RightArm  4.89507 -10.9657 61.4205
RightForeArm  5.02486 32.8732 6.99896
RightHand  -0.827782 3.7821 -10.7132
LeftUpLeg  -0.790208 -0.780418 -1.01822
LeftLeg  13.5774 10.6502 3.58452
LeftFoot  -10.3939 0.0932371 -3.74068
LeftToes  -5.82109e-011 1.10366e-010 -8.03124e-011
144
root  -8.10023 39.6166 19.9704 173.179 61.4015 173.231
RightUpLeg  -12.491 -9.25756 -9.18589
RightLeg  7.59611 -11.8425 -1.38535
RightFoot  7.96976 -1.32015 8.06984
RightToes  -1.74624e-010 0 -3.6325e-017
Spine  8.2294 0.0462188 -12.8653
Spine1  25.1069 -0.826516 -0.893215
HEad  -25.4861 44.2146 -15.5497
LeftShoulder1  2.12634 -4.94496 -18.6203
LeftArm  7.82798 -0.749909 -60.5475
LeftForeArm  22.9481 -77.6362 -82.9971
LeftHand  -0.564984 3.14165 28.8826
RightShoulder  1.13392 1.64086 15.2712
RightArm  5.14768 -11.2523 61.3883
RightForeArm  5.18058 31.9967 6.76075
RightHand  -0.7695 3.73821 -10.0221
LeftUpLeg  -0.902633 -0.832511 -1.12914
LeftLeg  13.6445 10.4021 3.53277
LeftFoot  -10.3471 0.0933016 -3.59703
LeftToes  -5.82109e-011 1.10366e-010 -8.03124e-011
145
root  -8.17219 39.6102 19.9603 173.105 61.1578 173.189
RightUpLeg  -12.4914 -9.30856 -9.32083
RightLeg  7.60302 -12.0028 -1.45054
RightFoot  8.06117 -1.32704 8.07505
RightToes  -1.74624e-010 0 -3.6325e-017
Spine  8.30173 0.0186278 -13.0172
Spine1  25.1261 -0.946471 -0.747473
HEad  -25.3188 44.1166 -15.3679
LeftShoulder1  2.09645 -4.80472 -18.69
LeftArm  7.65595 -0.857124 -60.0606
LeftForeArm  22.401 -77.6172 -81.961
LeftHand  -0.601692 2.97745 28.6478
RightShoulder  1.13502 1.67963 15.1593
RightArm  4.89474 -11.5654 61.4668
RightForeArm  5.85129 31.7575 6.66135
RightHand  -0.702772 3.70122 -9.2155
LeftUpLeg  -1.05015 -0.893706 -1.24023
LeftLeg  13.7802 10.2392 3.51156
LeftFoot  -10.3411 0.0923327 -3.49939
LeftToes  -5.82109e-011 1.10366e-010 -8.03124e-011
146
root  -8.24716 39.5948 19.9449 172.997 61.1363 173.113
RightUpLeg  -12.5871 -9.33795 -9.41554
RightLeg  7.6917 -11.9695 -1.50828
RightFoot  8.09318 -1.34027 8.13977
RightToes  -1.74624e-010 0 -3.6325e-017
Spine  8.30414 -0.0102631 -13.1329
Spine1  25.1651 -1.01044 -0.702721
HEad  -25.4696 44.2338 -15.4451
LeftShoulder1  2.08011 -4.76225 -18.6166
LeftArm  7.58646 -1.00918 -59.2542
LeftForeArm  20.8409 -77.5679 -80.5045
LeftHand  -0.593014 3.00371 28.5482
RightShoulder  1.12919 1.68418 15.0107
RightArm  4.5271 -11.7645 61.494
RightForeArm  6.33239 32.0209 6.70205
RightHand  -0.677602 3.69845 -8.89767
LeftUpLeg  -1.23935 -0.84492 -1.32617
LeftLeg  14.0658 10.1693 3.48906
LeftFoot  -10.4456 0.0890204 -3.43425
LeftToes  -5.82109e-011 1.10366e-010 -8.03124e-011
147
root  -8.32666 39.5707 19.9303 172.918 61.2804 173.11
RightUpLeg  -12.7358 -9.28358 -9.42106
RightLeg  7.85382 -11.8659 -1.59541
RightFoot  8.10945 -1.35843 8.23897
RightToes  -1.74624e-010 0 -3.6325e-017
Spine  8.41988 -0.029921 -13.1399
Spine1  25.0654 -1.01803 -0.777198
HEad  -25.7008 44.338 -15.5753
LeftShoulder1  2.06792 -4.77865 -18.4042
LeftArm  7.53249 -1.10545 -58.2615
LeftForeArm  18.5963 -77.4963 -79.0315
LeftHand  -0.544529 3.20398 28.6206
RightShoulder  1.11208 1.60833 14.9991
RightArm  4.29925 -11.8447 61.2988
RightForeArm  6.2092 32.6833 6.88169
RightHand  -0.705672 3.6454 -9.30579
LeftUpLeg  -1.46782 -0.700203 -1.34218
LeftLeg  14.5271 10.1484 3.48753
LeftFoot  -10.6563 0.0838361 -3.37109
LeftToes  -5.82109e-011 1.10366e-010 -8.03124e-011
148
root  -8.41015 39.5441 19.9217 172.972 61.4735 173.294
RightUpLeg  -12.8467 -9.15209 -9.32149
RightLeg  7.97088 -11.8127 -1.67308
RightFoot  8.17075 -1.37007 8.28257
RightToes  -1.74624e-010 0 -3.6325e-017
Spine  8.6692 -0.0483749 -13.1
Spine1  24.8553 -1.06114 -0.80004
HEad  -25.8647 44.3087 -15.7404
LeftShoulder1  2.06107 -4.81848 -18.1863
LeftArm  7.43805 -1.1432 -57.1433
LeftForeArm  16.4717 -77.4262 -77.8281
LeftHand  -0.52046 3.3198 28.8853
RightShoulder  1.09255 1.52418 14.9731
RightArm  4.01052 -11.8889 61.0038
RightForeArm  5.99295 33.6969 7.16393
RightHand  -0.717099 3.47 -9.62602
LeftUpLeg  -1.72712 -0.608252 -1.2831
LeftLeg  15.1168 10.2098 3.57769
LeftFoot  -10.9003 0.0782222 -3.31371
LeftToes  -5.82109e-011 1.10366e-010 -8.03124e-011
149
root  -8.49355 39.5179 19.9156 173.095 61.7163 173.566
RightUpLeg  -12.9187 -9.04962 -9.18269
RightLeg  8.00179 -11.6977 -1.66873
RightFoot  8.27097 -1.36762 8.22949
RightToes  -1.74624e-010 0 -3.6325e-017
Spine  8.89506 -0.0506684 -13.1307
Spine1  24.7064 -1.16215 -0.652178
HEad  -26.0467 44.2763 -16.0768
LeftShoulder1  2.07246 -4.88765 -18.1125
LeftArm  7.26918 -1.14769 -55.9413
LeftForeArm  15.08 -77.3773 -77.0407
LeftHand  -0.516212 3.3465 29.0252
RightShoulder  1.07745 1.50791 14.7195
RightArm  3.51191 -11.8964 60.8422
RightForeArm  6.1629 34.882 7.47833
RightHand  -0.675497 3.31236 -9.23778
LeftUpLeg  -1.99761 -0.660506 -1.21997
LeftLeg  15.7645 10.4532 3.78169
LeftFoot  -11.1207 0.0730145 -3.2978
LeftToes  -5.82109e-011 1.10366e-010 -8.03124e-011
150
root  -8.56878 39.4919 19.9053 173.13 62.0718 173.761
RightUpLeg  -12.98 -9.02472 -9.07066
RightLeg  8.0187 -11.3992 -1.58731
RightFoot  8.35673 -1.36257 8.16746
RightToes  -1.74624e-010 0 -3.6325e-017
Spine  9.01771 -0.0207753 -13.2045
Spine1  24.678 -1.22878 -0.474374
HEad  -26.2236 44.4109 -16.4634
LeftShoulder1  2.09677 -4.98278 -18.1233
LeftArm  7.02559 -1.11817 -54.8289
LeftForeArm  14.0985 -77.336 -76.3269
LeftHand  -0.505871 3.38081 28.9314
RightShoulder  1.06647 1.53084 14.3697
RightArm  3.0051 -11.7968 60.7973
RightForeArm  6.42261 35.9691 7.76964
RightHand  -0.628375 3.33014 -8.59782
LeftUpLeg  -2.20705 -0.752249 -1.20053
LeftLeg  16.3963 10.8508 4.03406
LeftFoot  -11.3262 0.068333 -3.33921
LeftToes  -5.82109e-011 1.10366e-010 -8.03124e-011
151
root  -8.62628 39.4685 19.8895 173.065 62.5316 173.906
RightUpLeg  -12.9784 -8.9732 -8.95364
RightLeg  8.037 -11.0286 -1.51246
RightFoot  8.4144 -1.37108 8.19414
RightToes  -1.74624e-010 0 -3.6325e-017
Spine  9.09932 0.0223512 -13.1706
Spine1  24.678 -1.18242 -0.487686
HEad  -26.1909 44.7222 -16.5821
LeftShoulder1  2.10463 -5.04078 -18.0416
LeftArm  6.74423 -1.0596 -54.02
LeftForeArm  12.6257 -77.2649 -75.1232
LeftHand  -0.4972 3.41128 28.8753
RightShoulder  1.05886 1.52391 14.2351
RightArm  2.71026 -11.6026 60.6702
RightForeArm  6.2622 36.839 8.03188
RightHand  -0.620808 3.38982 -8.44257
LeftUpLeg  -2.26325 -0.710893 -1.16628
LeftLeg  16.9253 11.2249 4.24461
LeftFoot  -11.5447 0.0631609 -3.40466
LeftToes  -5.82109e-011 1.10366e-010 -8.03124e-011
